<?xml version="1.0" encoding="UTF-8" standalone="no"?>
<!DOCTYPE svg PUBLIC "-//W3C//DTD SVG 20010904//EN"
              "http://www.w3.org/TR/2001/REC-SVG-20010904/DTD/svg10.dtd">

<svg xmlns="http://www.w3.org/2000/svg"
     width="200px" height="60px"
     viewBox="0 0 1920 450">
  <path fill="black" stroke="black" stroke-width="1"
        d="M 7.74,99.00
           C 5.61,101.98 4.75,109.60 8.31,111.98
             8.31,111.98 27.00,115.04 27.00,115.04
             30.00,115.94 33.46,117.25 35.79,119.39
             41.87,124.97 42.99,140.05 43.00,148.00
             43.00,148.00 43.00,282.00 43.00,282.00
             43.00,282.00 42.28,321.00 42.28,321.00
             41.54,326.67 41.37,332.00 38.03,336.96
             33.77,343.29 25.17,345.10 18.00,345.83
             15.02,346.13 10.00,345.64 7.74,347.82
             5.50,349.98 5.24,357.99 7.74,360.01
             9.28,361.25 13.06,361.00 15.00,361.00
             15.00,361.00 27.00,361.00 27.00,361.00
             27.00,361.00 42.00,360.00 42.00,360.00
             42.00,360.00 74.00,360.00 74.00,360.00
             74.00,360.00 90.00,361.00 90.00,361.00
             90.00,361.00 140.00,361.00 140.00,361.00
             170.22,360.86 212.32,347.48 233.91,325.91
             265.56,294.30 272.44,237.60 260.57,196.00
             257.79,186.25 253.56,176.87 248.69,168.00
             243.24,158.08 236.01,149.18 228.17,141.09
             207.09,119.34 183.92,105.83 154.00,100.42
             134.25,96.85 114.00,97.97 94.00,98.00
             94.00,98.00 77.00,99.00 77.00,99.00
             77.00,99.00 42.00,99.00 42.00,99.00
             34.21,98.99 14.02,96.26 7.74,99.00 Z
           M 1252.00,201.00
           C 1258.17,208.74 1263.89,230.66 1267.33,241.00
             1267.33,241.00 1295.33,325.00 1295.33,325.00
             1295.33,325.00 1304.67,353.00 1304.67,353.00
             1306.69,358.97 1308.93,363.87 1316.00,364.77
             1327.04,366.19 1329.22,354.84 1332.19,347.00
             1332.19,347.00 1356.31,281.00 1356.31,281.00
             1356.31,281.00 1394.58,176.00 1394.58,176.00
             1394.58,176.00 1412.71,129.00 1412.71,129.00
             1416.96,122.27 1421.37,118.07 1429.00,115.52
             1434.07,113.83 1441.67,113.98 1443.83,110.69
             1445.62,107.96 1445.32,101.04 1442.49,99.02
             1440.74,97.77 1437.12,98.00 1435.00,98.00
             1435.00,98.00 1431.00,98.00 1431.00,98.00
             1431.00,98.00 1417.00,99.00 1417.00,99.00
             1417.00,99.00 1393.00,99.00 1393.00,99.00
             1393.00,99.00 1376.00,98.00 1376.00,98.00
             1365.74,97.98 1362.46,96.75 1362.04,104.00
             1361.93,106.02 1361.91,109.79 1363.17,111.43
             1364.79,113.53 1370.48,113.78 1373.00,114.00
             1379.56,114.58 1388.84,116.51 1390.69,124.00
             1392.17,130.03 1386.12,143.65 1384.00,150.00
             1384.00,150.00 1361.31,215.00 1361.31,215.00
             1361.31,215.00 1326.00,316.00 1326.00,316.00
             1326.00,316.00 1312.00,275.00 1312.00,275.00
             1312.00,275.00 1282.67,185.00 1282.67,185.00
             1282.67,185.00 1270.33,147.00 1270.33,147.00
             1268.77,142.32 1264.88,132.51 1265.22,128.00
             1265.81,120.33 1270.00,116.72 1277.00,114.75
             1282.71,113.13 1288.79,114.40 1289.66,107.00
             1290.53,99.57 1287.58,98.04 1281.00,98.04
             1281.00,98.04 1268.00,98.04 1268.00,98.04
             1268.00,98.04 1256.00,99.00 1256.00,99.00
             1256.00,99.00 1227.00,99.00 1227.00,99.00
             1227.00,99.00 1212.00,98.00 1212.00,98.00
             1212.00,98.00 1206.00,98.00 1206.00,98.00
             1204.06,98.00 1200.28,97.75 1198.67,98.99
             1196.36,100.91 1196.29,110.03 1198.67,112.02
             1200.17,113.37 1208.82,114.53 1212.00,115.71
             1219.72,118.57 1226.94,124.90 1231.05,132.00
             1233.54,136.32 1239.84,155.85 1240.84,161.00
             1241.07,163.38 1241.02,166.55 1240.84,169.00
             1240.87,180.34 1231.71,199.74 1227.42,211.00
             1227.42,211.00 1207.20,264.00 1207.20,264.00
             1207.20,264.00 1187.00,315.00 1187.00,315.00
             1187.00,315.00 1174.34,276.00 1174.34,276.00
             1174.34,276.00 1154.33,214.00 1154.33,214.00
             1154.33,214.00 1143.67,181.00 1143.67,181.00
             1143.67,181.00 1132.86,148.00 1132.86,148.00
             1131.20,142.22 1125.44,128.09 1126.24,123.00
             1127.96,112.01 1143.11,114.62 1146.26,112.01
             1147.72,110.81 1147.86,108.74 1147.96,107.00
             1148.09,104.74 1148.18,100.54 1146.26,98.99
             1144.82,97.83 1141.78,98.01 1140.00,98.00
             1140.00,98.00 1120.00,99.00 1120.00,99.00
             1120.00,99.00 1091.00,99.00 1091.00,99.00
             1091.00,99.00 1077.00,98.00 1077.00,98.00
             1077.00,98.00 1069.00,98.00 1069.00,98.00
             1063.94,98.09 1062.36,98.50 1062.04,104.00
             1061.23,118.01 1069.60,110.43 1080.96,116.67
             1087.01,119.99 1089.82,126.88 1092.19,133.00
             1092.19,133.00 1110.33,187.00 1110.33,187.00
             1110.33,187.00 1140.00,275.00 1140.00,275.00
             1140.00,275.00 1163.33,345.00 1163.33,345.00
             1166.07,353.21 1168.62,365.77 1180.00,364.77
             1186.46,364.21 1188.95,359.34 1191.19,354.00
             1191.19,354.00 1202.20,326.00 1202.20,326.00
             1202.20,326.00 1235.40,241.00 1235.40,241.00
             1239.97,229.49 1246.17,211.07 1252.00,201.00 Z
           M 102.00,113.29
           C 131.59,110.52 166.96,119.56 189.00,140.09
             212.91,162.36 226.62,204.76 227.00,237.00
             227.32,264.95 224.67,296.30 204.83,317.99
             200.71,322.49 195.17,326.35 190.00,329.58
             165.53,344.83 138.97,346.32 111.00,346.00
             99.93,345.87 83.26,344.68 78.48,333.00
             76.88,329.09 77.01,326.10 77.00,322.00
             77.00,322.00 77.00,167.00 77.00,167.00
             77.00,167.00 77.00,135.00 77.00,135.00
             77.07,129.47 78.02,124.35 82.21,120.34
             87.27,115.49 95.36,114.30 102.00,113.29 Z
           M 587.00,170.42
           C 587.00,170.42 572.00,172.90 572.00,172.90
             547.34,178.92 525.13,194.93 512.43,217.00
             491.17,253.94 494.33,306.03 525.17,336.83
             534.45,346.10 546.77,353.54 559.00,358.19
             567.14,361.28 581.29,363.89 590.00,364.00
             618.99,364.34 644.93,359.17 666.99,338.83
             702.72,305.87 707.31,242.54 676.54,205.00
             655.52,179.37 619.67,166.43 587.00,170.42 Z
           M 299.00,344.00
           C 298.41,347.28 296.68,356.67 299.60,358.98
             301.19,360.23 305.01,360.00 307.00,360.00
             307.00,360.00 376.00,360.00 376.00,360.00
             377.94,360.00 381.72,360.25 383.35,359.01
             385.84,356.93 384.78,348.79 383.35,346.31
             381.94,343.53 377.77,343.44 375.00,342.76
             370.57,341.67 366.39,339.87 363.72,335.96
             360.95,331.89 361.20,326.68 360.58,322.00
             360.58,322.00 360.00,278.00 360.00,278.00
             375.47,278.00 388.50,281.07 398.47,294.00
             402.00,298.57 406.04,307.54 408.42,313.00
             414.59,327.13 424.75,351.53 438.00,359.52
             443.38,362.77 449.79,363.92 456.00,364.00
             461.63,364.06 478.36,364.06 479.59,356.96
             481.14,348.08 470.21,348.98 465.00,346.43
             461.62,344.78 458.81,341.94 456.53,339.00
             456.53,339.00 432.21,289.00 432.21,289.00
             426.77,279.02 417.75,270.07 406.00,269.00
             406.00,269.00 418.00,265.84 418.00,265.84
             425.86,263.68 435.15,258.67 440.91,252.91
             459.16,234.66 459.41,194.43 435.00,181.32
             424.21,175.53 405.24,173.06 393.00,173.00
             393.00,173.00 331.00,174.00 331.00,174.00
             331.00,174.00 316.00,173.00 316.00,173.00
             316.00,173.00 307.00,173.00 307.00,173.00
             305.01,173.00 301.19,172.77 299.39,174.02
             297.40,175.76 297.54,183.35 299.39,185.43
             300.52,187.14 303.05,186.93 305.00,187.17
             308.55,187.58 313.75,188.69 317.00,190.11
             327.22,194.56 327.98,207.20 328.00,217.00
             328.00,217.00 328.00,304.00 328.00,304.00
             328.00,313.33 329.12,332.46 323.35,339.89
             317.89,346.93 306.65,345.01 299.00,344.00 Z
           M 727.60,174.01
           C 726.04,176.19 726.13,176.25 726.02,179.00
             725.94,180.96 725.82,184.84 727.02,186.42
             728.63,188.53 733.52,188.76 736.00,189.13
             740.51,189.82 746.36,191.24 749.79,194.39
             755.14,199.31 755.99,211.06 756.00,218.00
             756.00,218.00 756.00,316.00 756.00,316.00
             755.99,323.95 755.20,336.24 747.96,341.01
             737.37,347.97 726.46,341.37 726.02,352.00
             725.94,353.91 725.82,357.88 727.02,359.40
             728.37,361.10 731.05,360.96 733.00,361.00
             733.00,361.00 757.00,360.00 757.00,360.00
             757.00,360.00 787.00,360.00 787.00,360.00
             787.00,360.00 802.00,361.00 802.00,361.00
             802.00,361.00 810.00,361.00 810.00,361.00
             815.64,360.99 818.57,361.67 818.96,355.00
             819.87,339.22 807.17,349.63 795.11,340.20
             788.76,335.24 788.01,320.65 788.00,313.00
             788.00,313.00 788.00,242.00 788.00,242.00
             788.00,231.73 787.41,211.21 790.17,202.00
             792.61,193.87 798.35,191.38 806.00,189.66
             815.50,187.54 818.53,189.29 818.96,182.00
             819.46,173.30 817.32,173.04 811.00,173.00
             811.00,173.00 788.00,174.01 788.00,174.01
             788.00,174.01 757.00,174.01 757.00,174.01
             749.58,173.99 733.86,171.36 727.60,174.01 Z
           M 848.43,174.00
           C 845.64,177.09 844.61,184.16 848.43,187.02
             851.39,189.23 858.97,188.51 866.00,191.48
             875.85,195.64 876.89,208.53 877.00,218.00
             877.00,218.00 877.00,314.00 877.00,314.00
             876.99,322.18 876.31,335.91 868.96,340.87
             859.16,347.47 847.12,341.87 846.11,352.00
             844.96,363.64 855.06,361.01 863.00,361.00
             863.00,361.00 879.00,360.00 879.00,360.00
             879.00,360.00 901.00,360.00 901.00,360.00
             901.00,360.00 918.00,361.00 918.00,361.00
             918.00,361.00 956.00,361.00 956.00,361.00
             978.57,360.96 1008.94,351.33 1024.83,334.91
             1053.74,305.03 1053.44,244.19 1030.65,211.00
             1026.49,204.94 1021.69,199.15 1016.00,194.46
             987.29,170.83 955.69,172.95 921.00,173.00
             921.00,173.00 906.00,174.00 906.00,174.00
             906.00,174.00 878.00,174.00 878.00,174.00
             870.21,173.91 855.41,171.26 848.43,174.00 Z
           M 1462.60,174.01
           C 1461.04,176.19 1461.13,176.25 1461.02,179.00
             1460.94,180.96 1460.82,184.84 1462.02,186.42
             1463.63,188.53 1468.52,188.76 1471.00,189.13
             1475.51,189.82 1481.36,191.24 1484.79,194.39
             1490.14,199.31 1490.99,211.06 1491.00,218.00
             1491.00,218.00 1491.00,316.00 1491.00,316.00
             1490.99,323.95 1490.20,336.24 1482.96,341.01
             1472.37,347.97 1461.46,341.37 1461.02,352.00
             1460.94,353.91 1460.82,357.88 1462.02,359.40
             1463.37,361.10 1466.05,360.96 1468.00,361.00
             1468.00,361.00 1492.00,360.00 1492.00,360.00
             1492.00,360.00 1522.00,360.00 1522.00,360.00
             1522.00,360.00 1537.00,361.00 1537.00,361.00
             1537.00,361.00 1545.00,361.00 1545.00,361.00
             1550.64,360.99 1553.57,361.67 1553.96,355.00
             1554.87,339.22 1542.17,349.63 1530.11,340.20
             1523.76,335.24 1523.01,320.65 1523.00,313.00
             1523.00,313.00 1523.00,242.00 1523.00,242.00
             1523.00,231.73 1522.41,211.21 1525.17,202.00
             1527.61,193.87 1533.35,191.38 1541.00,189.66
             1550.50,187.54 1553.53,189.29 1553.96,182.00
             1554.46,173.30 1552.32,173.04 1546.00,173.00
             1546.00,173.00 1523.00,174.01 1523.00,174.01
             1523.00,174.01 1492.00,174.01 1492.00,174.01
             1484.58,173.99 1468.86,171.36 1462.60,174.01 Z
           M 1669.00,360.00
           C 1669.70,356.08 1671.00,349.87 1668.15,346.51
             1666.17,344.18 1662.75,344.19 1660.00,343.49
             1654.40,342.06 1649.74,339.63 1647.56,334.00
             1646.08,330.16 1645.02,318.38 1645.00,314.00
             1645.00,314.00 1645.00,273.00 1645.00,273.00
             1652.58,273.17 1659.91,274.66 1665.96,279.53
             1670.00,282.77 1680.85,297.07 1684.80,302.00
             1684.80,302.00 1704.08,326.00 1704.08,326.00
             1714.49,338.54 1720.99,343.00 1721.00,360.00
             1721.00,360.00 1778.00,360.00 1778.00,360.00
             1779.29,352.81 1779.29,352.19 1778.00,345.00
             1770.02,344.35 1760.53,342.07 1754.04,337.21
             1750.12,334.28 1740.49,322.40 1736.73,318.00
             1736.73,318.00 1701.87,277.00 1701.87,277.00
             1698.22,272.76 1689.07,263.38 1688.58,258.00
             1688.07,252.49 1695.64,244.91 1699.17,241.00
             1699.17,241.00 1737.00,200.33 1737.00,200.33
             1744.62,194.04 1755.32,190.52 1765.00,189.13
             1770.94,188.28 1776.53,189.45 1776.96,182.00
             1777.11,179.40 1777.28,174.93 1774.57,173.86
             1771.55,172.06 1757.47,173.99 1753.00,173.86
             1753.00,173.86 1730.00,173.86 1730.00,173.86
             1730.00,173.86 1717.00,173.00 1717.00,173.00
             1717.00,173.00 1710.00,173.00 1710.00,173.00
             1704.36,173.01 1701.43,172.33 1701.04,179.00
             1700.90,181.42 1700.84,185.33 1702.74,187.10
             1705.17,189.35 1714.86,189.22 1714.14,196.02
             1713.61,201.05 1704.54,212.86 1701.20,217.00
             1688.11,233.21 1667.27,256.96 1645.00,258.00
             1645.00,258.00 1645.00,218.00 1645.00,218.00
             1645.05,213.98 1646.20,202.52 1647.56,199.00
             1649.85,193.07 1654.18,191.01 1660.00,189.48
             1662.54,188.81 1666.35,188.48 1668.15,186.44
             1671.01,183.19 1669.69,176.84 1669.00,173.00
             1669.00,173.00 1654.00,173.00 1654.00,173.00
             1654.00,173.00 1639.00,174.00 1639.00,174.00
             1639.00,174.00 1614.00,174.00 1614.00,174.00
             1614.00,174.00 1599.00,173.00 1599.00,173.00
             1599.00,173.00 1592.00,173.00 1592.00,173.00
             1586.29,173.01 1583.30,172.29 1583.02,179.00
             1582.94,180.96 1582.82,184.84 1584.02,186.42
             1585.38,188.20 1588.91,188.55 1591.00,188.92
             1595.37,189.69 1601.19,190.85 1604.96,193.22
             1611.75,197.50 1612.91,208.59 1613.00,216.00
             1613.00,216.00 1613.00,317.00 1613.00,317.00
             1612.90,325.03 1611.65,336.28 1603.98,340.59
             1596.97,344.53 1587.33,343.63 1584.60,345.98
             1583.10,347.28 1583.09,349.18 1583.02,351.00
             1582.94,352.91 1582.82,356.88 1584.02,358.40
             1586.03,360.93 1599.42,360.00 1603.00,360.00
             1603.00,360.00 1669.00,360.00 1669.00,360.00 Z
           M 1808.60,174.01
           C 1807.04,176.19 1807.13,176.25 1807.02,179.00
             1806.94,180.96 1806.82,184.84 1808.02,186.42
             1809.63,188.53 1814.52,188.76 1817.00,189.13
             1821.51,189.82 1827.36,191.24 1830.79,194.39
             1836.14,199.31 1836.99,211.06 1837.00,218.00
             1837.00,218.00 1837.00,316.00 1837.00,316.00
             1836.99,323.95 1836.20,336.24 1828.96,341.01
             1818.37,347.97 1807.46,341.37 1807.02,352.00
             1806.94,353.91 1806.82,357.88 1808.02,359.40
             1809.37,361.10 1812.05,360.96 1814.00,361.00
             1814.00,361.00 1838.00,360.00 1838.00,360.00
             1838.00,360.00 1868.00,360.00 1868.00,360.00
             1868.00,360.00 1883.00,361.00 1883.00,361.00
             1883.00,361.00 1891.00,361.00 1891.00,361.00
             1896.64,360.99 1899.57,361.67 1899.96,355.00
             1900.87,339.22 1888.17,349.63 1876.11,340.20
             1869.76,335.24 1869.01,320.65 1869.00,313.00
             1869.00,313.00 1869.00,242.00 1869.00,242.00
             1869.00,231.73 1868.41,211.21 1871.17,202.00
             1873.61,193.87 1879.35,191.38 1887.00,189.66
             1896.50,187.54 1899.53,189.29 1899.96,182.00
             1900.46,173.30 1898.32,173.04 1892.00,173.00
             1892.00,173.00 1869.00,174.01 1869.00,174.01
             1869.00,174.01 1838.00,174.01 1838.00,174.01
             1830.58,173.99 1814.86,171.36 1808.60,174.01 Z
           M 360.00,263.00
           C 360.00,263.00 360.00,203.00 360.00,203.00
             360.01,198.74 359.77,194.75 362.65,191.21
             365.62,187.56 370.62,186.65 375.00,185.80
             384.84,183.92 400.72,184.64 408.91,190.94
             416.50,196.77 418.89,205.84 419.00,215.00
             419.17,229.83 419.54,245.45 406.00,255.21
             393.37,264.32 374.78,263.00 360.00,263.00 Z
           M 588.00,185.15
           C 588.00,185.15 596.00,185.15 596.00,185.15
             623.24,185.31 644.67,204.60 654.55,229.00
             659.77,241.90 662.16,259.12 662.00,273.00
             661.66,301.89 650.65,335.28 621.00,345.91
             613.98,348.43 606.40,349.08 599.00,349.00
             573.60,348.70 553.35,332.62 543.03,310.00
             536.05,294.70 533.97,279.66 534.00,263.00
             534.05,227.79 549.80,191.63 588.00,185.15 Z
           M 927.00,188.29
           C 947.55,186.37 974.43,190.61 990.00,205.09
             1009.63,223.37 1012.12,254.82 1012.00,280.00
             1011.93,295.62 1008.05,317.38 996.91,328.96
             981.61,344.86 956.66,346.24 936.00,346.00
             920.88,345.82 909.09,343.72 909.00,326.00
             909.00,326.00 909.00,230.00 909.00,230.00
             909.00,230.00 909.00,203.00 909.00,203.00
             909.05,199.59 909.06,196.96 911.43,194.21
             915.18,189.85 921.67,189.10 927.00,188.29 Z" />
</svg>
